<svg xmlns="http://www.w3.org/2000/svg" width="256" height="256"><path fill-opacity=".016" d="M0 128.004v128.004l128.25-.254 128.25-.254.254-127.75L257.008 0H0v128.004m.485.496c0 70.4.119 99.053.265 63.672.146-35.38.146-92.98 0-128C.604 29.153.485 58.1.485 128.5" fill="#1976D2" fill-rule="evenodd"/><path fill-opacity=".187" d="M36 .933c0 .513-.96 1.237-2.134 1.61-4.563 1.448-14.097 7.783-18.818 12.505-4.722 4.721-11.057 14.255-12.505 18.818C2.17 35.04 1.446 36 .933 36 .363 36 0 71.765 0 128c0 53.209.376 92 .892 92 .49 0 1.169 1.108 1.509 2.463 1.163 4.634 7.965 15 13.034 19.866 5.313 5.1 13.715 10.49 19.464 12.489 2.518.876 26.934 1.182 94.172 1.182h90.773l8.041-4.122c10.949-5.614 18.485-13.289 24.479-24.929l4.636-9.003-.015-91.723c-.009-50.955-.395-91.125-.868-90.378-.631.996-1.019.681-1.495-1.213-1.092-4.354-7.198-13.888-12.293-19.197-4.866-5.069-15.232-11.871-19.866-13.034C221.108 2.061 220 1.382 220 .892 220 .376 181.209 0 128 0 71.765 0 36 .363 36 .933M.48 128c0 50.875.121 71.687.27 46.25.148-25.438.148-67.063 0-92.5C.601 56.312.48 77.125.48 128" fill="#1976D2" fill-rule="evenodd"/><path fill-opacity=".225" d="M39.833.755C39.65 1.17 35.9 3.268 31.5 5.417 20.503 10.789 10.789 20.503 5.417 31.5 3.268 35.9 1.17 39.65.755 39.833.34 40.017 0 79.906 0 128.476c0 77.575.182 88.38 1.5 88.886.825.316 1.5 1.314 1.5 2.217 0 3.645 6.859 14.291 13.495 20.947 6.548 6.567 8.236 7.654 22.741 14.638 2.309 1.111 176.297 1.083 178.528-.03.955-.476 4.886-2.382 8.736-4.235 8.857-4.265 19.649-14.795 24.25-23.664 1.787-3.445 3.25-6.878 3.25-7.627 0-.75.675-1.923 1.5-2.608 1.313-1.089 1.5-12.285 1.5-89.622 0-61.665-.32-88.302-1.058-88.128-.583.137-1.64-1.395-2.35-3.406-2.363-6.689-6.847-13.276-13.51-19.844-6.295-6.206-17.011-13-20.503-13-.903 0-1.901-.675-2.217-1.5C216.856.182 206.051 0 128.476 0c-48.57 0-88.459.34-88.643.755m8.463 23.2c-5.739 1.386-10.567 4.221-15.372 9.025-10.988 10.989-10.886 10.099-10.907 94.938-.018 72.984.304 79.744 4.155 87.377 4.534 8.988 13.528 15.955 23.681 18.345 7.368 1.734 146.456 1.974 155.682.269 14.745-2.726 25.272-13.14 28.114-27.814 1.982-10.234 1.862-146.02-.138-155.459-2.45-11.562-8.93-19.854-19.511-24.963-4.494-2.17-4.61-2.173-83.5-2.332-43.45-.088-80.442.188-82.204.614M.479 128.5c0 48.95.122 68.829.271 44.175.149-24.654.149-64.704 0-89C.601 59.379.479 79.55.479 128.5m100.89-51.841c-.84 2.012-2.011 7.906-2.601 13.097-.892 7.853-.836 9.596.33 10.376 1.819 1.216 20.502.675 21.798-.632.776-.782 4.104-19.115 4.104-22.605 0-.414-.707-1.459-1.571-2.324-1.208-1.207-3.767-1.571-11.051-1.571h-9.48l-1.529 3.659m45.78-2.772c-1.567.992-3.711 9.509-4.685 18.605-.612 5.719-.482 6.428 1.364 7.416 2.899 1.552 18.363 1.404 20.552-.196 1.682-1.231 1.958-2.487 4.31-19.618.841-6.123-.761-7.098-11.631-7.079-4.708.009-9.167.401-9.91.872m-48.781 32.101c-2.276.918-3.112 4.533-6.826 29.512-.9 6.05-2.075 13.217-2.612 15.927-.675 3.407-.645 5.258.096 6 1.209 1.209 16.724 2.104 20.416 1.177 2.782-.698 4.11-4.101 5.116-13.104.368-3.3 1.215-8.475 1.882-11.5l1.213-5.5 8.832-.291c4.858-.16 9.222.098 9.697.573.486.486.244 3.897-.553 7.791-.78 3.81-1.726 9.962-2.103 13.672-.673 6.635-.641 6.761 1.96 7.75 3.796 1.443 17.771 1.268 19.846-.248.942-.69 1.948-3.052 2.235-5.25.757-5.801 3.325-21.744 4.992-30.997 2.141-11.873 1.961-14.352-1.124-15.525-3.168-1.204-60.081-1.193-63.067.013m40.994 65.777c-1.541.996-4.362 7.945-4.362 10.748 0 2.116.388 2.258 5.743 2.093 4.553-.14 5.812-.534 6.075-1.9.444-2.302-1.614-8.359-3.47-10.215-1.669-1.669-2.337-1.79-3.986-.726m12.649.721c-1.184 1.427-1.152 2.125.219 4.841.882 1.745 1.874 4.411 2.206 5.923.331 1.512 1.064 2.75 1.629 2.75 1.084 0 5.909-9.593 5.925-11.781.015-1.898-2.791-2.629-4.534-1.182-1.245 1.033-1.748.946-2.79-.479-1.184-1.62-1.366-1.625-2.655-.072m-63.03 2.065c-1.299 3.415-.271 9.124 1.785 9.913 2.534.972 3.368-.828 3.041-6.562-.238-4.18-.697-5.457-2.054-5.715-1.145-.218-2.1.597-2.772 2.364m10.686-1.884c-.367.366-.667 3.08-.667 6.031 0 4.028.405 5.52 1.624 5.988.977.375 1.992-.036 2.549-1.032 1.188-2.122 3.466-2.122 4.654 0 .557.996 1.572 1.407 2.549 1.032 2.334-.896 2.334-11.476 0-12.372-.977-.375-1.992.036-2.549 1.032-1.155 2.063-3.699 2.151-4.465.154-.598-1.556-2.535-1.993-3.695-.833m18.259 2.01c-2.354 6.153 2.568 13.491 7.815 11.65 4.743-1.664 7.151-10.512 3.651-13.417-1.367-1.134-1.818-1.048-3 .569-.766 1.047-1.392 3.032-1.392 4.412 0 3.4-1.751 1.48-2.173-2.382-.447-4.09-3.459-4.601-4.901-.832" fill="#1976D2" fill-rule="evenodd"/><path fill-opacity=".741" d="M42.75 2.083C41.788 3.138 40.074 4 38.942 4c-3.773 0-15.088 7.107-21.461 13.481C11.107 23.854 4 35.169 4 38.942 4 40.074 3.1 41.9 2 43c-1.968 1.968-2 3.333-2 85.5s.032 83.532 2 85.5c1.1 1.1 2 2.833 2 3.851 0 4.286 7.789 15.993 15.514 23.319 4.875 4.623 15.149 10.71 20.253 11.998 2.347.593 4.511 1.473 4.809 1.955.304.492 37.09.863 83.733.845 71.564-.027 83.462-.237 85.132-1.5 1.068-.807 2.805-1.468 3.86-1.468 4.091 0 14.375-6.609 21.733-13.966C246.525 231.542 253 221.378 253 217.11c0-1.16.9-3.01 2-4.11 1.969-1.969 2-3.323 1.985-86.25-.009-47.392-.392-83.656-.875-82.893-1.044 1.647-1.582.856-2.99-4.395-1.334-4.975-7.48-15.235-11.95-19.948C233.844 11.789 222.137 4 217.851 4c-1.018 0-2.751-.9-3.851-2C212.03.03 210.723.001 128.25.083c-81.204.081-83.803.142-85.5 2m5.996 18.991c-10.882 2.599-20.098 10.229-25.095 20.775L20.5 48.5v161l2.931 5.978c3.733 7.616 10.475 14.358 18.091 18.091L47.5 236.5h162l5.978-2.931c7.616-3.733 14.358-10.475 18.091-18.091l2.931-5.978v-162l-2.807-5.717c-3.864-7.869-10.402-14.276-18.468-18.097L208.5 20.5l-78-.161c-43.198-.09-79.675.238-81.754.735M.478 128.5c0 46.75.122 65.729.272 42.175.149-23.554.149-61.804 0-85C.6 62.479.478 81.75.478 128.5m102.015-48.75c-.329 2.063-1.025 5.637-1.546 7.943-.521 2.306-.947 5.793-.947 7.75V99h8.878c5.92 0 9.199-.416 9.843-1.25 1.309-1.695 3.723-18.15 2.956-20.15-.5-1.303-2.285-1.6-9.6-1.6h-8.986l-.598 3.75m45.021-2.5c-1.08 3.191-3.476 20.003-2.968 20.825.907 1.467 18.424 1.168 18.993-.325.918-2.407 3.13-19.262 2.69-20.5-.309-.873-3.131-1.25-9.367-1.25-6.248 0-9.052.375-9.348 1.25M98.27 109.236c-.55.695-1.259 3.739-1.577 6.764-.318 3.025-1.56 11.8-2.759 19.5-1.199 7.7-2.238 15.575-2.307 17.5l-.127 3.5H110.325l1.239-6.077c.682-3.342 1.565-9.192 1.964-13 .398-3.808 1.353-8.161 2.123-9.673 1.385-2.719 1.511-2.75 11.252-2.75 13.292 0 12.973-.515 10.402 16.806-1.118 7.532-1.715 14.05-1.327 14.485.387.435 4.694.66 9.57.5l8.866-.291 1.196-5.5c.658-3.025 1.703-9.1 2.322-13.5 2.636-18.738 3.339-24.14 3.45-26.5l.118-2.5-31.116-.264c-24.139-.205-31.34.019-32.114 1M140.5 177c-.34.55-.141 1 .441 1s1.059-.45 1.059-1-.198-1-.441-1-.719.45-1.059 1m-31.421 1.583c.048 1.165.285 1.402.604.605.289-.722.253-1.585-.079-1.917-.332-.332-.568.258-.525 1.312m45.921.858c0 .793.45 1.719 1 2.059.55.34 1-.309 1-1.441 0-1.132-.45-2.059-1-2.059s-1 .648-1 1.441" fill="#1976D2" fill-rule="evenodd"/></svg>